<svg width="240" height="240" viewBox="0 0 240 240" fill="none" xmlns="http://www.w3.org/2000/svg">
<rect width="240" height="240" fill="white"/>
<rect x="47" y="90" width="172" height="60" rx="8" fill="#E0EFFF"/>
<path d="M64.728 105.288C64.952 105.96 65.224 106.824 65.544 107.88C65.896 108.936 66.264 110.072 66.648 111.288C67.032 112.504 67.416 113.736 67.8 114.984C68.184 116.232 68.552 117.384 68.904 118.44C69.288 117.256 69.688 116.04 70.104 114.792C70.52 113.512 70.92 112.296 71.304 111.144C71.688 109.96 72.04 108.856 72.36 107.832C72.68 106.808 72.968 105.96 73.224 105.288H78.12C78.344 107.88 78.552 110.408 78.744 112.872C78.968 115.336 79.144 117.784 79.272 120.216C79.432 122.616 79.56 125.048 79.656 127.512C79.752 129.944 79.832 132.44 79.896 135H74.472L74.76 111.912L71.112 124.488H66.792L63.288 111.912L63.528 135H58.104C58.2 132.568 58.296 130.04 58.392 127.416C58.52 124.792 58.648 122.184 58.776 119.592C58.904 117 59.048 114.488 59.208 112.056C59.4 109.624 59.608 107.368 59.832 105.288H64.728ZM98.232 135L96.84 128.136H88.92L87.576 135H81.432C82.84 129.144 84.264 123.816 85.704 119.016C87.144 114.184 88.536 109.608 89.88 105.288H96.312C97.72 109.64 99.112 114.264 100.488 119.16C101.896 124.024 103.256 129.304 104.568 135H98.232ZM92.952 111.048C92.632 112.168 92.328 113.24 92.04 114.264C91.784 115.256 91.528 116.248 91.272 117.24C91.048 118.2 90.824 119.176 90.6 120.168C90.408 121.16 90.216 122.184 90.024 123.24H95.832C95.64 122.184 95.448 121.16 95.256 120.168C95.064 119.176 94.84 118.2 94.584 117.24C94.36 116.248 94.104 115.256 93.816 114.264C93.56 113.24 93.272 112.168 92.952 111.048ZM113.496 130.2C113.656 130.232 113.832 130.248 114.024 130.248C114.216 130.248 114.392 130.248 114.552 130.248C115.896 130.248 117.016 129.992 117.912 129.48C118.84 128.968 119.576 128.264 120.12 127.368C120.696 126.472 121.096 125.416 121.32 124.2C121.576 122.952 121.704 121.592 121.704 120.12C121.704 118.84 121.608 117.592 121.416 116.376C121.224 115.16 120.888 114.088 120.408 113.16C119.928 112.232 119.272 111.496 118.44 110.952C117.608 110.376 116.536 110.088 115.224 110.088C114.968 110.088 114.68 110.104 114.36 110.136C114.04 110.136 113.752 110.168 113.496 110.232V130.2ZM127.704 120.12C127.704 122.872 127.352 125.224 126.648 127.176C125.976 129.096 125.032 130.664 123.816 131.88C122.6 133.096 121.144 133.992 119.448 134.568C117.784 135.112 115.944 135.384 113.928 135.384C112.872 135.384 111.832 135.32 110.808 135.192C109.816 135.096 108.744 134.92 107.592 134.664V105.672C108.936 105.384 110.2 105.192 111.384 105.096C112.568 105 113.672 104.952 114.696 104.952C116.648 104.952 118.424 105.24 120.024 105.816C121.656 106.392 123.032 107.304 124.152 108.552C125.272 109.768 126.136 111.336 126.744 113.256C127.384 115.144 127.704 117.432 127.704 120.12ZM132.024 135V105.288H150.024V110.184H137.928V116.856H148.44V121.752H137.928V130.104H151.08V135H132.024ZM170.04 135C168.696 131.704 167.224 128.424 165.624 125.16C164.056 121.864 162.36 118.568 160.536 115.272V135H155.208V105.288H159.96C160.856 106.696 161.752 108.232 162.648 109.896C163.544 111.528 164.408 113.16 165.24 114.792C166.104 116.424 166.888 118.008 167.592 119.544C168.328 121.08 168.952 122.424 169.464 123.576V105.288H174.792V135H170.04ZM177.384 137.784H200.616V142.92H177.384V137.784Z" fill="#323232"/>
<rect width="16" height="26" transform="translate(19 107)" fill="white"/>
<circle cx="22" cy="110" r="3" fill="#989898"/>
<circle cx="32" cy="110" r="3" fill="#989898"/>
<circle cx="22" cy="130" r="3" fill="#989898"/>
<circle cx="22" cy="120" r="3" fill="#989898"/>
<circle cx="32" cy="110" r="3" fill="#989898"/>
<circle cx="32" cy="120" r="3" fill="#989898"/>
<circle cx="32" cy="130" r="3" fill="#989898"/>
</svg>
